<?xml version="1.0" encoding="UTF-8" standalone="no"?>
<svg
   xmlns:dc="http://purl.org/dc/elements/1.1/"
   xmlns:cc="http://creativecommons.org/ns#"
   xmlns:rdf="http://www.w3.org/1999/02/22-rdf-syntax-ns#"
   xmlns:svg="http://www.w3.org/2000/svg"
   xmlns="http://www.w3.org/2000/svg"
   xmlns:sodipodi="http://sodipodi.sourceforge.net/DTD/sodipodi-0.dtd"
   xmlns:inkscape="http://www.inkscape.org/namespaces/inkscape"
   version="1.0"
   width="1268.7341pt"
   height="334.96591pt"
   viewBox="0 0 1268.7341 334.96591"
   preserveAspectRatio="xMidYMid meet"
   id="svg3864"
   sodipodi:docname="hanging-vine-left.svg"
   inkscape:version="0.92.5 (2060ec1f9f, 2020-04-08)">
  <defs
     id="defs3868" />
  <sodipodi:namedview
     pagecolor="#ffffff"
     bordercolor="#666666"
     borderopacity="1"
     objecttolerance="10"
     gridtolerance="10"
     guidetolerance="10"
     inkscape:pageopacity="0"
     inkscape:pageshadow="2"
     inkscape:window-width="1920"
     inkscape:window-height="966"
     id="namedview3866"
     showgrid="false"
     fit-margin-top="0"
     fit-margin-left="0"
     fit-margin-right="0"
     fit-margin-bottom="0"
     inkscape:zoom="0.4839262"
     inkscape:cx="807.20901"
     inkscape:cy="26.737668"
     inkscape:window-x="0"
     inkscape:window-y="25"
     inkscape:window-maximized="1"
     inkscape:current-layer="g3862" />
  <metadata
     id="metadata3858">
Created by potrace 1.15, written by Peter Selinger 2001-2017
<rdf:RDF>
  <cc:Work
     rdf:about="">
    <dc:format>image/svg+xml</dc:format>
    <dc:type
       rdf:resource="http://purl.org/dc/dcmitype/StillImage" />
    <dc:title></dc:title>
  </cc:Work>
</rdf:RDF>
</metadata>
  <g
     transform="matrix(-0.1,0,0,0.1,1269,-153)"
     id="g3862"
     style="fill:#000000;stroke:none">
    <path
       d="m 4991,1584.6591 c -195,141 -502,436 -624,597 -117,157 -176,305 -179,454 -2,79 19,135 72,191 l 31,32 -49,103 c -27,57 -62,136 -78,175 l -28,73 -55,16 c -159,46 -251,58 -461,58 -236,1 -339,-14 -455,-68 -92,-42 -158,-97 -342,-283 l -152,-153 89,-60 89,-60 38,23 c 30,17 53,22 108,22 64,0 77,-4 150,-44 44,-24 118,-73 165,-109 80,-61 440,-415 481,-474 l 19,-26 -55,14 c -31,8 -59,13 -63,10 -10,-6 -198,27 -299,53 -246,63 -488,193 -560,300 -19,28 -23,47 -23,111 v 77 l -101,67 -101,67 -85,-30 c -127,-46 -234,-62 -418,-62 -314,0 -680,71 -1209,236 -45,14 -48,14 -41,-3 18,-44 15,-92 -13,-186 l -28,-99 -17,59 c -29,105 -26,161 8,202 14,17 25,34 25,39 0,5 -26,17 -57,27 -126,39 -760,270 -770,280 -2,1 5,23 16,47 11,24 26,61 34,81 l 15,37 164,-66 c 545,-219 1030,-378 1373,-453 55,-12 105,-23 112,-25 7,-2 26,21 43,51 28,48 30,58 21,86 -18,50 -13,138 10,188 35,79 391,411 415,388 2,-2 -9,-38 -25,-79 -15,-41 -34,-99 -41,-129 -19,-87 -121,-291 -170,-340 -39,-39 -114,-80 -146,-80 -17,0 -59,-79 -47,-90 4,-4 51,-13 103,-19 309,-35 483,-19 657,64 62,29 97,57 245,202 192,188 257,233 403,282 90,30 90,30 109,78 11,26 41,97 68,157 42,96 46,111 34,125 -8,9 -26,41 -40,71 -33,71 -33,135 0,242 61,195 150,310 459,591 127,116 307,256 329,257 4,0 5,-10 2,-23 -25,-86 -67,-267 -82,-347 -28,-154 -142,-478 -230,-651 -45,-90 -158,-168 -275,-189 -35,-7 -69,-14 -74,-15 -11,-3 -120,-244 -113,-250 2,-1 48,1 103,6 173,16 393,-5 599,-57 189,-48 389,-129 826,-336 l 115,-55 81,38 c 44,21 127,54 184,73 l 104,35 12,59 c 17,81 37,116 102,178 65,63 185,125 297,156 71,20 106,22 315,23 373,2 563,-15 749,-65 l 44,-11 -74,-48 c -41,-26 -137,-85 -214,-131 -77,-46 -173,-106 -214,-133 -141,-95 -407,-208 -583,-249 -88,-21 -92,-21 -164,-4 -89,21 -179,65 -218,104 l -27,30 -131,-49 c -72,-27 -133,-51 -135,-53 -13,-12 287,-104 427,-131 175,-33 285,-37 452,-15 183,23 368,57 618,111 l 185,41 103,109 103,108 -10,53 c -11,59 -1,130 25,179 28,55 195,218 280,275 94,63 197,111 315,149 46,15 119,42 161,62 72,32 166,63 196,63 7,0 -8,-25 -33,-56 -25,-30 -61,-86 -80,-124 -57,-114 -186,-290 -353,-484 -71,-81 -85,-92 -176,-137 -86,-42 -107,-49 -160,-49 -34,0 -76,4 -93,9 -31,9 -34,7 -88,-55 -31,-35 -53,-64 -48,-64 4,0 123,27 263,60 258,61 501,115 665,150 50,11 145,24 212,29 148,11 489,-2 596,-23 101,-20 166,-8 217,40 82,77 194,95 367,60 45,-10 91,-18 102,-19 42,-3 4,-26 -127,-77 -171,-66 -248,-75 -343,-40 -33,12 -63,19 -66,16 -9,-9 -5,-11 102,-40 145,-40 326,-110 678,-260 598,-256 764,-312 1067,-361 99,-16 145,-9 191,29 30,25 40,29 105,40 30,5 112,-9 204,-34 l 45,-13 -83,-23 c -138,-37 -128,-40 93,-24 331,24 519,74 735,194 52,29 214,130 360,223 298,190 340,217 340,210 0,-2 -37,-29 -82,-58 -46,-30 -168,-112 -272,-184 -105,-71 -225,-150 -268,-176 l -77,-47 57,-7 57,-7 -50,-20 c -28,-11 -80,-21 -116,-23 -42,-2 -99,-15 -155,-35 -261,-92 -711,-128 -1032,-80 -253,37 -488,96 -670,169 -29,11 -55,21 -58,21 -3,0 10,-17 30,-38 38,-40 166,-215 162,-220 -5,-5 -207,78 -259,106 -67,36 -113,91 -132,156 -24,80 -58,103 -328,213 -410,167 -663,241 -897,262 -158,14 -401,20 -394,10 3,-5 13,-9 22,-9 48,0 286,-90 442,-168 l 175,-87 -60,-8 c -227,-29 -418,-43 -476,-36 -220,30 -259,48 -306,143 l -26,53 -96,22 -96,21 -175,-40 c -96,-22 -263,-63 -370,-91 -677,-175 -754,-193 -995,-235 -77,-13 -155,-24 -172,-24 -18,0 -33,-3 -33,-8 0,-4 47,-38 104,-75 l 104,-68 39,23 c 90,55 158,62 283,27 130,-35 255,-117 482,-315 131,-115 458,-436 458,-451 0,-5 -102,3 -227,18 -331,40 -375,47 -505,85 -255,73 -420,162 -502,270 -60,78 -75,120 -76,205 v 66 l -152,100 -153,101 -83,6 c -173,13 -422,66 -657,138 -96,29 -160,55 -574,237 -152,67 -311,131 -325,131 -2,0 24,-62 57,-139 l 60,-139 76,-4 c 89,-5 133,-25 209,-93 94,-85 174,-239 247,-479 26,-86 175,-753 175,-783 0,-9 -23,4 -89,52 z m 3024,1495 c 4,6 27,21 53,35 30,16 38,23 22,20 -14,-2 -53,-9 -88,-15 -35,-6 -73,-15 -85,-19 -19,-7 -16,-10 23,-19 61,-13 68,-14 75,-2 z"
       id="path3860"
       inkscape:connector-curvature="0" />
    <path
       style="fill:#0a3f37;fill-opacity:1;stroke-width:15.49823093"
       d="m 5067.5116,1561.3416 c 0,29.0375 -145.008,655.9322 -178.2937,770.7934 -70.737,244.0999 -182.4375,430.6287 -306.591,511.9769 -20.589,13.4906 -77.7743,29.6381 -127.0778,35.8832 l -89.6422,11.355 -59.901,138.3446 c -32.9453,76.0895 -59.9003,141.0708 -59.9003,144.4029 0,11.9238 75.051,-17.6981 447.6488,-176.6826 484.8697,-206.8902 777.1313,-292.7275 1106.0782,-324.8555 96.1271,-9.3887 116.9369,-18.5589 255.7208,-112.6901 l 151.0781,-102.4698 7.7649,-85.2403 c 17.2521,-189.3862 166.0791,-318.5073 488.1785,-423.5395 68.1922,-22.2365 156.3661,-47.4863 195.942,-56.1106 115.2489,-25.1146 575.6027,-79.1202 585.4716,-68.6835 11.9928,12.6827 -390.5402,399.1056 -556.6892,534.4097 -253.4603,206.4062 -460.4099,274.0407 -609.9684,199.3474 l -71.1408,-35.5294 -110.3714,73.3919 c -60.7042,40.3656 -107.963,75.4458 -105.0196,77.956 2.9436,2.5104 99.5037,20.2682 214.578,39.4618 115.0743,19.1938 497.4599,107.307 849.7455,195.8072 352.2857,88.5001 660.3621,160.9094 684.6143,160.9094 24.2523,0 80.0301,-8.2948 123.9507,-18.433 69.7191,-16.093 83.7647,-26.0951 110.6509,-78.7964 60.6491,-118.8821 263.5301,-156.9225 617.7662,-115.8319 l 178.2296,20.6743 -131.5287,67.2143 c -153.3569,78.3691 -388.4988,171.6673 -432.6578,171.6673 -16.8663,0 -35.6257,8.0249 -41.6876,17.8332 -15.9335,25.7811 415.3637,6.9454 580.5512,-25.3539 238.3337,-46.6017 833.116,-264.9035 966.5492,-354.7508 27.8633,-18.7617 65.7494,-65.847 84.1915,-104.6342 18.4421,-38.7871 54.2535,-87.9588 79.5809,-109.2703 52.518,-44.1909 246.622,-130.8845 260.955,-116.5515 5.224,5.2234 -26.819,55.7088 -71.206,112.1898 -44.386,56.4809 -77.837,105.5577 -74.336,109.0598 3.502,3.502 68.156,-14.5185 143.675,-40.0456 197.845,-66.8758 215.464,-55.7032 23.005,14.5886 -89.502,32.6889 -354.9645,139.7713 -589.9161,237.9608 -234.9516,98.1895 -499.9713,201.4088 -588.9328,229.3764 -88.9615,27.9675 -165.2353,55.4406 -169.4972,61.0512 -12.2987,16.1903 -394.0515,46.3021 -581.1837,45.8424 -224.5178,-0.552 -293.3792,-11.5742 -818.6021,-131.0358 -244.8163,-55.6832 -456.0291,-101.2423 -469.3618,-101.2423 -17.851,0 -11.3129,16.3232 24.8025,61.9227 48.9381,61.7894 49.271,61.9191 154.7166,60.3142 91.7812,-1.398 118.6129,5.2335 204.1049,50.4394 80.0636,42.3354 123.0149,81.6561 230.1668,210.7117 72.4543,87.265 162.1983,205.8265 199.4313,263.4699 160.6068,248.6488 185.4568,291.0364 173.1918,295.4185 -7.1325,2.5485 -92.1471,-26.0857 -188.9211,-63.6315 -96.774,-37.5457 -210.0206,-81.0391 -251.659,-96.6519 -113.4804,-42.5508 -238.2533,-129.075 -361.71,-250.8289 -121.7583,-120.0788 -154.0845,-191.758 -135.6605,-300.8085 9.9397,-58.8329 7.1157,-63.8101 -95.7965,-168.8433 l -106.0383,-108.2235 -209.2262,-45.1512 c -573.1151,-123.679 -833.4514,-142.8628 -1092.6253,-80.5144 -177.6256,42.7308 -379.7062,109.308 -379.7062,125.0974 0,6.6925 59.3578,34.5713 131.9066,61.9531 l 131.9072,49.785 46.0809,-38.7746 c 74.4944,-62.6829 212.0691,-107.4838 302.2851,-98.4385 86.9373,8.7165 225.8299,52.4877 387.4557,122.1043 107.4263,46.2715 720.6678,414.073 720.6678,432.2322 0,34.5029 -378.8529,75.7301 -699.1797,76.0856 -282.5178,0.3135 -367.1761,-12.909 -505.5857,-78.9657 -138.077,-65.8981 -226.8979,-156.8043 -250.879,-256.7692 l -18.6337,-77.6741 -142.3856,-54.6669 c -78.3121,-30.0668 -163.3133,-63.3978 -188.8913,-74.0688 -43.6913,-18.2279 -63.8535,-11.4324 -333.2115,112.3064 -556.317,255.5628 -754.2188,310.4202 -1127.4855,312.5326 -129.9915,0.7357 -236.3483,4.5149 -236.3483,8.3983 0,3.8834 25.5855,61.5828 56.8568,128.221 45.3352,96.6078 64.9642,122.8753 96.864,129.6236 96.69,20.4545 182.3497,61.9476 242.6677,117.5471 68.3963,63.045 143.5575,221.7405 229.92,485.4485 43.899,134.0461 151.98,582.9727 142.6095,592.3432 -12.2752,12.2754 -258.6682,-196.2245 -432.3667,-365.8721 -199.1775,-194.5332 -267.3983,-285.7276 -320.1383,-427.9481 -46.6155,-125.705 -47.4382,-202.8863 -3.1695,-297.4007 l 36.318,-77.541 -58.38,-137.992 c -32.109,-75.8956 -64.692,-146.2948 -72.4072,-156.4426 -7.7153,-10.1477 -62.619,-37.018 -122.0078,-59.7118 -121.0485,-46.2554 -186.228,-94.5051 -406.7182,-301.0778 -231.7868,-217.1571 -357.156,-259.9994 -712.5503,-243.4987 -229.6252,10.6612 -273.816,19.2976 -273.816,53.514 0,21.3694 -2.8125,21.3457 -27.1215,-0.2295 -24.6952,-21.9178 -48.6135,-18.6548 -267.3442,36.4724 -288.342,72.6713 -737.53724,222.1141 -1118.18699,372.009 -153.32474,60.3774 -280.412242,107.3476 -282.416992,104.3785 -15.59775,-23.1057 -59.767499,-138.6752 -54.780749,-143.333 9.1755,-8.5696 402.783741,-153.9195 614.606241,-226.9587 100.10175,-34.5166 188.06325,-68.8177 195.47025,-76.2249 7.6245,-7.6246 2.60325,-28.9784 -11.57325,-49.2186 -25.60575,-36.5569 -30.7335,-129.5334 -10.99425,-199.3345 9.86475,-34.8815 12.80175,-31.4924 29.45175,33.9848 10.17225,40.0016 18.49425,105.2592 18.49425,145.0166 0,55.0443 5.09475,70.3315 21.35775,64.0908 76.93125,-29.5213 485.59729,-139.0154 639.01569,-171.2117 412.7813,-86.6261 746.4653,-93.357 974.6903,-19.6609 l 123.9855,40.0362 104.613,-69.4988 104.613,-69.4989 v -85.1339 c 0,-79.5218 4.254,-89.2624 64.5307,-147.7586 82.9748,-80.5245 341.3985,-208.0587 501.1553,-247.3239 156.0457,-38.3533 395.2042,-76.4706 395.2042,-62.988 0,15.1876 -416.439,421.5933 -488.1937,476.4318 -175.1595,133.8651 -302.4638,172.4825 -400.329,121.4389 -42.1313,-21.9745 -47.6123,-20.3394 -138.3465,41.2769 l -94.476,64.1579 200.6535,196.2316 c 296.9715,290.4266 372.879,318.7544 819.9532,305.9993 194.148,-5.5389 289.2105,-15.1321 361.299,-36.4599 l 97.8285,-28.9432 77.8095,-178.2296 c 60.1785,-137.8421 73.9568,-183.4976 60.8055,-201.477 -79.0402,-108.0532 -80.6347,-113.1218 -74.331,-236.2809 5.2478,-102.5306 15.4245,-138.7079 69.756,-247.9717 97.0733,-195.2213 360.3848,-478.0005 672.0128,-721.6992 100.9642,-78.9557 121.9117,-90.9512 121.9117,-69.8128 z M 7921.406,3083.3779 c -26.8474,17.0113 -9.6892,27.2575 67.6401,40.3918 34.0312,5.7802 74.0798,13.8576 88.9968,17.9498 41.5255,11.3915 32.1995,-14.7981 -15.526,-43.6009 -47.3886,-28.5997 -109.0699,-35.0429 -141.1109,-14.7407 z"
       id="path4588"
       inkscape:connector-curvature="0" />
    <path
       style="fill:#0a3f37;fill-opacity:1;stroke-width:15.49823093"
       d="m 1860.7471,2938.1423 c 82.4205,41.4563 139.0313,103.7238 195.4808,215.0124 50.2567,99.0803 144.984,381.3719 127.9747,381.3719 -22.6665,0 -357.0862,-329.448 -380.6242,-374.9661 -15.1635,-29.3228 -21.6518,-80.8351 -19.1933,-152.3795 2.0423,-59.445 4.0598,-107.3449 4.482,-106.4443 0.42,0.9006 32.769,17.7331 71.88,37.4056 z"
       id="path4590"
       inkscape:connector-curvature="0" />
    <path
       style="fill:#0a3f37;fill-opacity:1;stroke-width:15.49823093"
       d="m 9205.5391,3167.9466 c 55.4062,19.6462 120.9419,46.384 145.635,59.4173 l 44.8965,23.697 -125.8206,19.573 c -161.7464,25.1616 -244.1065,12.243 -335.301,-52.594 l -72.6423,-51.6468 49.9431,-17.4103 c 77.4066,-26.9841 182.9534,-20.1595 293.2893,18.9638 z"
       id="path4592"
       inkscape:connector-curvature="0" />
    <path
       style="fill:#0a3f37;fill-opacity:1;stroke-width:15.49823093"
       d="m 11115.419,2445.3843 c -27.856,3.4493 -69.701,3.3781 -92.99,-0.1582 -23.288,-3.5364 -0.497,-6.3585 50.647,-6.2715 51.144,0.087 70.198,2.9803 42.343,6.4296 z"
       id="path4594"
       inkscape:connector-curvature="0" />
    <path
       style="fill:#0a3f37;fill-opacity:1;stroke-width:15.49823093"
       d="m 11065.327,2463.3088 c 0,7.5121 33.127,22.3738 73.616,33.0261 l 73.617,19.3678 -77.491,20.9187 c -111.42,30.0778 -162.302,26.3954 -232.474,-16.8246 -38.549,-23.743 -88.367,-39.1485 -131.735,-40.737 l -69.742,-2.5544 77.492,-12.0697 c 108.154,-16.8458 286.717,-17.5476 286.717,-1.1269 z"
       id="path4596"
       inkscape:connector-curvature="0" />
    <path
       style="fill:#0a3f37;fill-opacity:1;stroke-width:15.49823093"
       d="m 11993.486,2628.0198 c 79.991,-15.7108 100.915,-29.7412 44.355,-29.7412 -22.021,0 -42.653,-7.8462 -45.849,-17.436 -3.732,-11.1952 -33.318,-3.1326 -82.658,22.5257 -71.584,37.226 -73.662,39.895 -30.35,38.9854 25.572,-0.537 77.098,-6.9873 114.502,-14.3339 z"
       id="path4598"
       inkscape:connector-curvature="0" />
  </g>
</svg>
