<?xml version="1.0" standalone="no"?>
<!DOCTYPE svg PUBLIC "-//W3C//DTD SVG 20010904//EN"
 "http://www.w3.org/TR/2001/REC-SVG-20010904/DTD/svg10.dtd">
<svg version="1.0" xmlns="http://www.w3.org/2000/svg"
 width="1280.000000pt" height="643.000000pt" viewBox="0 0 1280.000000 643.000000"
 preserveAspectRatio="xMidYMid meet">
<metadata>
Created by potrace 1.15, written by Peter Selinger 2001-2017
</metadata>
<g transform="translate(0.000000,643.000000) scale(0.100000,-0.100000)"
fill="#4caf50" stroke="none">
<path d="M3859 6398 c-45 -22 -90 -58 -149 -118 -144 -145 -234 -301 -293
-505 -57 -198 -75 -229 -222 -385 -106 -112 -121 -139 -170 -310 -87 -300
-215 -658 -258 -724 -23 -34 -175 -108 -317 -154 -164 -53 -263 -82 -284 -82
-9 0 -58 23 -108 51 -51 29 -156 85 -232 126 -170 91 -247 142 -396 264 -307
250 -385 309 -488 367 -123 70 -261 165 -334 231 -65 58 -122 134 -193 256
-90 155 -109 169 -157 118 -37 -40 -48 -66 -48 -115 0 -154 211 -355 605 -578
169 -95 152 -83 457 -314 449 -341 703 -493 1293 -774 166 -80 370 -233 435
-328 30 -43 30 -45 20 -109 -16 -98 -42 -158 -107 -243 -99 -130 -154 -234
-189 -362 -29 -102 -26 -364 5 -490 46 -189 193 -537 314 -741 84 -144 176
-254 404 -486 211 -214 285 -273 345 -273 23 0 28 5 34 37 11 59 -3 365 -26
548 -91 746 -261 1580 -370 1822 -37 81 -144 190 -243 247 -49 28 -74 50 -87
76 -11 21 -31 51 -45 69 -15 17 -24 31 -21 31 17 0 116 -43 116 -51 0 -5 9 -9
21 -9 11 0 84 -23 162 -51 217 -79 349 -123 625 -209 139 -44 265 -86 280 -94
70 -36 146 -150 191 -287 l22 -66 -22 -49 c-101 -234 -149 -461 -149 -703 0
-176 15 -256 75 -411 115 -299 376 -685 549 -811 134 -99 143 65 26 481 -97
346 -107 409 -90 560 31 289 33 342 16 410 -34 135 -141 307 -295 472 -38 41
-73 87 -77 102 l-6 27 53 -21 c30 -12 79 -35 109 -52 84 -47 273 -177 293
-202 20 -24 49 -116 52 -163 1 -18 16 -61 33 -95 24 -49 34 -90 46 -184 28
-208 69 -337 147 -451 18 -27 85 -102 149 -168 63 -66 146 -154 182 -196 76
-86 157 -136 238 -146 73 -8 84 4 77 89 -14 166 -182 541 -379 843 -32 50 -45
75 -29 56 l30 -34 78 6 c94 8 191 32 215 54 12 11 18 31 18 63 0 43 -4 51 -45
89 -86 79 -345 238 -366 225 -8 -4 -9 -3 -5 5 14 22 -207 111 -276 111 -48 0
-128 -19 -128 -31 0 -5 8 -6 18 -3 13 5 14 4 4 -4 -24 -16 6 -56 88 -117 104
-78 205 -170 280 -256 43 -50 25 -35 -55 47 -66 67 -163 153 -215 192 -94 70
-96 72 -159 191 -36 66 -95 162 -132 213 -37 51 -65 94 -64 96 2 2 95 -12 207
-32 111 -19 311 -54 443 -77 132 -23 254 -47 270 -54 17 -6 53 -17 80 -24 72
-18 130 -55 211 -136 l72 -71 46 -149 c26 -83 81 -238 124 -345 l77 -195 0
-315 c0 -266 3 -325 17 -383 35 -133 107 -244 256 -392 167 -167 395 -316 458
-301 72 18 126 96 139 196 9 73 -20 390 -51 560 -48 261 -125 527 -190 655
-123 242 -379 469 -724 643 -113 56 -131 69 -182 129 -31 37 -56 69 -55 70 10
10 1020 -247 1127 -287 181 -67 399 -184 429 -230 8 -14 45 -65 82 -115 36
-49 68 -95 71 -100 3 -6 25 -81 47 -168 102 -388 249 -739 415 -986 143 -214
270 -298 341 -226 37 36 36 124 -1 343 -13 81 -24 184 -24 237 0 64 -6 112
-20 156 -24 79 -115 221 -201 314 -62 67 -65 73 -77 144 -17 99 -55 183 -105
227 -49 45 -200 117 -372 179 -89 32 -159 65 -220 104 -49 32 -101 64 -113 70
-13 7 -22 14 -20 16 2 2 50 -5 108 -16 160 -28 426 -67 612 -88 142 -17 176
-24 218 -47 64 -35 304 -287 330 -347 10 -23 28 -86 38 -139 45 -218 161 -352
433 -497 125 -67 227 -108 324 -132 106 -25 161 -25 175 0 18 35 11 85 -19
132 -60 94 -367 403 -563 566 -156 131 -229 169 -328 174 -30 1 -63 6 -72 11
-10 4 -54 54 -100 111 -45 56 -93 113 -106 126 l-24 24 129 -6 c189 -8 457
-59 673 -128 146 -46 338 -145 522 -268 92 -62 170 -116 173 -120 3 -5 10 -56
15 -113 33 -332 109 -591 205 -697 58 -64 149 -132 270 -200 119 -68 247 -161
365 -267 116 -103 141 -118 196 -111 26 2 58 14 73 24 39 30 41 120 6 223 -58
165 -260 541 -408 759 -89 132 -203 248 -277 284 -204 98 -259 119 -337 124
-67 5 -85 11 -128 41 -97 66 -85 73 110 65 123 -5 160 -3 207 11 71 20 138 20
225 0 143 -34 254 6 369 129 39 42 79 99 102 145 32 66 37 87 41 159 4 110 -9
133 -77 132 l-47 0 -44 -69 c-85 -133 -331 -359 -463 -426 -59 -30 -149 -54
-203 -54 -38 0 -206 25 -365 56 -56 10 -112 33 -220 88 -169 86 -286 129 -538
195 -101 27 -186 51 -189 55 -16 15 35 45 113 66 76 20 103 22 258 18 132 -2
177 -7 193 -18 11 -8 58 -46 104 -83 98 -79 179 -121 266 -139 57 -11 69 -10
142 11 90 26 98 27 198 16 87 -9 148 9 188 56 31 38 31 50 -1 88 -25 30 -175
111 -205 111 -8 0 -27 7 -44 16 -16 9 -57 22 -90 29 -33 7 -48 14 -34 14 14 1
46 -5 72 -13 45 -13 47 -13 107 21 72 40 270 171 270 179 0 3 -4 2 -10 -1 -16
-10 -11 1 7 16 11 10 14 10 9 2 -33 -57 145 103 209 187 46 60 55 77 33 64 -8
-4 -10 -3 -5 2 5 5 14 9 20 9 16 0 21 59 7 85 -14 27 -31 26 -27 -2 2 -13 2
-17 0 -10 -3 8 -19 20 -36 28 l-32 15 30 -6 c27 -5 28 -4 10 7 -46 27 -151 11
-460 -73 -304 -82 -704 -229 -698 -257 2 -6 -4 -9 -11 -6 -21 8 -102 -70 -148
-140 -21 -33 -38 -63 -38 -67 0 -5 24 1 53 12 76 31 89 33 31 5 -29 -14 -60
-26 -70 -28 -11 -2 -23 -8 -29 -14 -23 -26 -233 -87 -485 -141 -112 -24 -445
-24 -635 1 -254 32 -425 59 -425 68 0 4 6 8 14 8 24 0 276 132 366 192 118 78
200 145 305 247 l90 88 85 9 c47 4 173 8 280 9 161 1 211 5 285 22 277 65 583
222 732 375 33 35 94 112 133 172 40 60 105 144 145 187 107 114 108 131 7
170 -71 27 -242 37 -335 20 -193 -37 -414 -145 -513 -253 -22 -24 -81 -98
-129 -164 -119 -160 -235 -304 -318 -391 -65 -68 -71 -72 -131 -82 -34 -6 -90
-11 -124 -11 l-61 0 74 113 c40 61 107 148 148 192 145 155 217 268 246 390 9
36 11 105 6 250 l-7 200 31 110 c40 137 51 271 28 328 -26 60 -68 45 -135 -51
-52 -75 -85 -141 -139 -281 -98 -253 -133 -459 -138 -800 l-3 -224 -61 -87
c-105 -149 -279 -313 -461 -435 -120 -80 -354 -194 -493 -239 -117 -39 -117
-39 -195 -27 -142 23 -252 50 -525 130 -150 44 -319 92 -377 106 -58 15 -112
29 -120 31 -8 3 53 23 135 44 187 47 297 85 444 154 64 30 157 66 206 81 166
50 276 115 377 223 111 121 175 286 189 492 7 108 22 181 113 548 58 232 113
470 122 529 l18 106 -23 18 c-31 26 -49 24 -102 -9 -97 -62 -208 -181 -304
-327 -158 -240 -384 -669 -475 -902 -57 -144 -60 -195 -21 -353 22 -88 31
-148 31 -207 l0 -83 -102 -49 c-189 -90 -459 -160 -756 -196 l-133 -16 -167
30 c-92 17 -273 49 -402 71 -267 46 -598 108 -620 116 -9 3 9 15 44 29 32 13
84 39 115 58 31 19 124 61 206 92 305 117 530 231 685 345 90 68 173 166 261
311 l56 94 94 33 c186 65 314 140 375 220 29 38 34 53 32 87 -3 38 -5 41 -53
57 -27 9 -97 19 -155 22 -58 3 -106 5 -106 6 -1 0 12 42 28 93 17 50 31 115
32 142 1 45 -1 50 -22 53 -40 6 -154 -35 -248 -90 -79 -46 -282 -183 -354
-238 -15 -12 -74 -29 -153 -45 -292 -58 -585 -185 -791 -343 -71 -55 -70 -53
57 113 120 155 291 330 366 373 85 48 138 57 219 38 55 -14 77 -15 117 -6 68
15 224 90 299 144 125 89 395 366 538 553 171 223 289 503 291 693 1 105 -17
134 -77 128 -83 -10 -239 -104 -478 -288 -219 -170 -297 -264 -378 -455 -116
-276 -156 -329 -556 -735 -154 -157 -325 -339 -379 -405 -54 -66 -136 -164
-182 -217 -82 -94 -85 -97 -166 -126 -86 -31 -268 -76 -352 -88 l-50 -6 75 49
c229 153 412 375 622 754 132 239 268 593 317 824 27 126 70 413 63 420 -14
14 -44 1 -67 -29 -21 -27 -41 -39 -98 -56 -101 -31 -169 -75 -263 -172 -222
-230 -624 -792 -720 -1005 -35 -78 -51 -170 -64 -359 -14 -193 -30 -275 -70
-363 -31 -66 -32 -68 -108 -103 -42 -20 -102 -44 -132 -53 -78 -23 -250 -30
-378 -15 -97 11 -122 19 -262 80 -85 38 -195 84 -245 104 -49 20 -166 76 -259
125 l-169 89 124 59 c68 33 150 76 182 96 l57 37 138 0 c151 0 210 11 293 56
97 53 406 379 460 486 39 77 57 149 69 282 16 161 31 205 93 273 68 74 88 109
125 214 95 271 165 830 111 895 -18 22 -61 17 -130 -18z m973 -2532 c73 -31
164 -39 290 -27 66 7 122 10 124 8 3 -2 -26 -46 -64 -96 -99 -132 -189 -295
-231 -419 -36 -105 -38 -107 -81 -129 -61 -30 -148 -52 -239 -59 -71 -6 -86
-3 -246 46 -450 136 -889 290 -859 301 10 3 55 16 98 28 43 12 106 35 140 50
46 21 90 31 176 40 261 28 488 93 707 201 76 38 141 69 144 69 4 1 22 -5 41
-13z m5525 -722 c-3 -3 -12 -4 -19 -1 -8 3 -5 6 6 6 11 1 17 -2 13 -5z m-122
-25 c-44 -10 -84 -17 -90 -15 -13 4 113 34 145 34 14 0 -11 -8 -55 -19z
m-5775 -34 c36 -9 83 -21 104 -26 50 -13 127 -86 210 -198 73 -98 141 -217
129 -224 -5 -3 -53 33 -108 79 -121 102 -234 179 -296 201 -36 13 -49 24 -58
48 -6 17 -26 57 -45 88 -27 44 -31 57 -18 53 9 -3 46 -12 82 -21z m5650 5
c-34 -11 -60 -11 -35 0 11 5 29 8 40 8 16 0 15 -2 -5 -8z m-189 -51 c-74 -21
-136 -37 -139 -35 -2 2 23 12 55 21 32 9 85 25 118 35 33 10 69 18 80 18 11 0
-40 -17 -114 -39z m587 16 c-3 -3 -9 2 -12 12 -6 14 -5 15 5 6 7 -7 10 -15 7
-18z m-48 -75 c-11 -16 -26 -33 -32 -36 -7 -4 1 9 16 29 34 44 46 50 16 7z
m-720 5 c-19 -7 -42 -13 -50 -13 -8 0 1 6 20 13 19 7 42 13 50 13 8 0 -1 -6
-20 -13z m-80 -25 c-8 -5 -22 -9 -30 -9 -10 0 -8 3 5 9 27 12 43 12 25 0z
m-60 -19 c-8 -5 -26 -11 -40 -15 -21 -5 -20 -3 5 9 32 15 60 20 35 6z m820
-14 c0 -1 -24 -25 -52 -52 l-53 -50 50 53 c46 48 55 57 55 49z m-900 -17 c-8
-5 -19 -10 -25 -10 -5 0 -3 5 5 10 8 5 20 10 25 10 6 0 3 -5 -5 -10z m-91 -35
c-9 -8 -79 -35 -79 -30 0 3 15 11 33 19 32 15 54 20 46 11z m-89 -39 c0 -2 -7
-7 -16 -10 -8 -3 -12 -2 -9 4 6 10 25 14 25 6z m670 -5 c-8 -5 -33 -12 -55
-15 l-40 -6 45 14 c53 17 71 19 50 7z m27 -19 c-20 -22 -22 -38 -4 -45 9 -4 9
-6 -1 -6 -7 -1 -16 9 -21 21 -6 18 -4 25 13 34 30 17 31 16 13 -4z m273 15 c0
-2 -12 -14 -27 -28 l-28 -24 24 28 c23 25 31 32 31 24z m-1072 -57 c-25 -22
-60 -62 -78 -90 -36 -56 -51 -68 -23 -18 20 36 124 148 137 148 5 0 -12 -18
-36 -40z m517 29 c-77 -4 -167 -14 -199 -23 -32 -9 -61 -15 -63 -13 -4 5 64
24 127 36 25 5 97 9 160 8 l115 0 -140 -8z m225 -9 c-8 -5 -31 -9 -50 -8 l-35
1 40 7 c59 11 61 11 45 0z m77 -12 c-3 -8 -6 -5 -6 6 -1 11 2 17 5 13 3 -3 4
-12 1 -19z m-209 -5 c-27 -2 -69 -2 -95 0 -27 2 -5 3 47 3 52 0 74 -1 48 -3z
m-203 -13 c-33 -5 -82 -16 -108 -25 -27 -9 -51 -15 -53 -12 -3 2 22 12 53 21
32 10 63 19 68 21 6 2 30 3 55 3 42 -1 41 -1 -15 -8z m-166 -4 c-2 -2 -29 -14
-59 -26 -30 -12 -51 -18 -47 -13 5 4 27 16 50 25 41 16 65 22 56 14z m731 -10
c0 -3 -15 -14 -32 -26 l-33 -22 30 26 c31 27 35 29 35 22z m-875 -95 c-133
-65 -138 -69 -105 -73 28 -4 26 -5 -8 -3 -23 1 -45 -1 -48 -6 -3 -5 15 -9 39
-9 25 0 64 -7 87 -15 53 -19 63 -19 30 0 -28 16 -19 20 10 5 14 -8 39 -6 85 5
37 8 78 14 93 14 27 -2 27 -2 2 -6 -78 -13 -170 -36 -170 -43 0 -5 -24 -14
-52 -20 -41 -9 -82 -8 -183 3 l-130 13 80 26 c44 15 150 60 235 102 85 41 160
75 165 75 6 0 -53 -31 -130 -68z m1 42 c-41 -21 -103 -47 -94 -38 10 10 101
53 113 54 6 0 -3 -7 -19 -16z m-4152 -29 c26 -9 45 -18 43 -20 -2 -3 -17 1
-33 7 -16 6 -58 15 -94 19 l-65 7 51 2 c28 0 72 -6 98 -15z m4881 -20 c-26
-20 -55 -36 -55 -30 0 5 63 46 70 46 3 -1 -4 -8 -15 -16z m-4795 -14 c8 -5 11
-10 5 -10 -5 0 -17 5 -25 10 -8 5 -10 10 -5 10 6 0 17 -5 25 -10z m45 -20 c3
-6 -1 -7 -9 -4 -18 7 -21 14 -7 14 6 0 13 -4 16 -10z m4685 -5 c0 -6 -76 -45
-87 -45 -4 1 12 12 37 25 50 27 50 27 50 20z m-4645 -15 c3 -6 -1 -7 -9 -4
-18 7 -21 14 -7 14 6 0 13 -4 16 -10z m4358 -17 c-29 -2 -78 -2 -110 0 -32 2
-8 3 52 3 61 0 87 -1 58 -3z m-4243 -49 c0 -2 -13 2 -30 11 -16 9 -30 18 -30
21 0 2 14 -2 30 -11 17 -9 30 -18 30 -21z m65 -39 l20 -16 -20 10 c-11 5 -29
17 -40 26 l-20 16 20 -10 c11 -5 29 -17 40 -26z m113 -73 c15 -13 1 -6 -30 14
-32 20 -58 39 -58 41 0 7 58 -29 88 -55z m-622 -79 c-5 -5 -36 86 -35 101 0 6
9 -13 20 -43 10 -30 17 -56 15 -58z m733 -7 c43 -46 17 -32 -34 18 -30 30 -38
41 -20 29 17 -12 41 -33 54 -47z m10 -121 c-8 -7 -27 -16 -44 -19 -28 -6 -28
-5 4 7 19 7 37 19 39 26 2 7 7 10 10 6 3 -3 -1 -12 -9 -20z m-99 -35 c-14 -4
-36 -8 -50 -8 -22 0 -22 1 5 8 17 4 39 8 50 8 16 0 15 -2 -5 -8z m-117 -17
c-13 -2 -35 -2 -50 0 -16 2 -5 4 22 4 28 0 40 -2 28 -4z"/>
<path d="M705 4066 c97 -83 117 -116 96 -155 -6 -11 -26 -25 -44 -30 -32 -9
-32 -9 13 -10 85 -3 213 -45 223 -74 2 -8 17 -6 49 6 53 21 74 57 64 110 -8
42 -33 65 -120 111 -66 35 -71 36 -160 34 -74 -2 -97 0 -121 15 l-30 18 30
-25z"/>
<path d="M1166 3501 c-4 -5 -15 -38 -26 -74 -11 -36 -36 -99 -55 -141 -32 -71
-43 -124 -29 -139 25 -25 82 84 114 214 10 42 23 86 30 98 6 13 9 29 6 37 -6
16 -32 19 -40 5z"/>
<path d="M1020 3020 c0 -5 5 -10 11 -10 5 0 7 5 4 10 -3 6 -8 10 -11 10 -2 0
-4 -4 -4 -10z"/>
<path d="M563 2747 c2 -12 8 -30 12 -40 6 -13 0 -20 -24 -28 -17 -6 -31 -12
-31 -14 0 -1 6 -18 14 -36 16 -38 6 -69 -21 -69 -24 0 -102 -62 -103 -82 0
-16 16 -33 92 -98 41 -34 62 -95 38 -110 -8 -5 -1 -12 24 -21 20 -7 36 -18 36
-25 0 -6 10 -9 24 -7 29 6 66 -12 66 -33 0 -12 3 -12 24 1 36 24 79 16 87 -15
6 -25 6 -24 10 5 3 26 8 30 34 30 17 0 35 3 42 8 6 4 18 4 27 1 11 -4 16 0 16
14 0 26 23 44 45 35 13 -4 16 -3 11 6 -7 11 33 102 55 125 4 5 19 2 34 -8 19
-12 24 -22 20 -39 -4 -16 0 -29 14 -41 12 -11 21 -24 21 -31 0 -6 17 -21 38
-33 35 -19 44 -20 105 -10 l66 11 20 48 c26 59 26 92 2 144 -21 46 -44 69 -84
84 -25 10 -33 8 -59 -14 -16 -14 -34 -25 -39 -25 -6 0 -28 14 -49 31 -68 55
-99 11 -35 -51 33 -32 44 -63 27 -74 -20 -12 -114 57 -157 116 -48 66 -57 108
-33 151 7 12 13 44 14 70 2 48 2 48 -19 34 -14 -9 -24 -29 -27 -54 -4 -22 -14
-53 -24 -68 -14 -22 -22 -26 -44 -20 -15 4 -37 15 -48 26 -12 11 -67 44 -124
74 -92 48 -102 51 -97 32z"/>
<path d="M54 2676 c-38 -17 -59 -62 -45 -98 12 -31 76 -78 106 -78 41 0 66 13
81 42 20 39 10 80 -28 118 -33 33 -64 37 -114 16z"/>
<path d="M1093 1944 c-8 -22 22 -44 59 -44 23 0 28 4 28 24 0 37 -74 53 -87
20z"/>
<path d="M2266 1794 c-11 -28 -6 -51 15 -78 22 -28 66 -35 87 -14 18 18 14 73
-6 91 -24 22 -88 23 -96 1z"/>
<path d="M1014 1546 c-39 -34 -39 -34 -20 -55 28 -30 89 -47 121 -33 34 16 34
64 0 97 -32 33 -54 31 -101 -9z"/>
<path d="M2333 1428 c10 -67 32 -138 43 -138 12 0 5 57 -17 131 -15 47 -33 52
-26 7z"/>
<path d="M498 1379 c-26 -15 -23 -71 5 -97 28 -27 78 -38 105 -23 39 21 36 85
-7 118 -19 15 -80 16 -103 2z"/>
<path d="M2417 998 c-2 -7 3 -33 12 -57 l16 -43 -50 -45 c-27 -24 -67 -53 -88
-64 l-37 -20 -43 29 c-58 40 -107 64 -107 53 0 -5 18 -28 41 -51 41 -42 41
-42 12 -37 -15 3 -48 9 -73 13 -25 3 -53 10 -62 16 -10 5 -18 7 -18 4 0 -2 27
-21 60 -41 33 -20 67 -49 75 -64 13 -25 12 -30 -7 -49 -18 -18 -19 -23 -8 -37
23 -28 -14 -55 -134 -97 -21 -7 -36 -17 -35 -23 5 -12 35 -8 73 11 37 18 55
18 62 -1 8 -20 -12 -43 -53 -60 -22 -9 -33 -21 -33 -34 0 -27 26 -27 65 -1 38
25 82 25 120 0 36 -24 83 -26 91 -5 14 37 144 5 144 -35 0 -29 21 -70 37 -70
17 0 17 11 -2 36 -23 30 -18 37 24 31 45 -6 93 -27 98 -43 2 -6 -13 -27 -34
-48 -46 -44 -32 -47 26 -5 43 32 84 40 103 21 8 -8 8 -16 -2 -27 -7 -8 -8 -15
-2 -15 5 0 15 7 22 16 16 19 79 46 91 39 15 -10 146 63 173 97 14 18 36 43 47
54 15 15 24 44 32 97 l11 76 -37 73 c-54 111 -85 137 -218 187 -63 24 -130 53
-149 64 l-35 20 28 -27 c15 -15 27 -31 27 -36 0 -16 -20 -22 -35 -10 -10 9
-15 7 -20 -9 -8 -26 -32 -27 -58 -3 -15 12 -21 14 -24 5 -7 -21 -26 -15 -65
22 -28 25 -38 42 -38 64 0 31 -15 50 -23 29z"/>
<path d="M1253 893 c-7 -2 -22 -25 -32 -49 -11 -24 -26 -47 -34 -50 -8 -3 -14
-16 -14 -29 0 -19 11 -28 59 -50 82 -37 133 -23 152 42 5 17 1 28 -18 44 -16
14 -26 33 -26 49 0 36 -48 59 -87 43z"/>
<path d="M1411 658 c-18 -5 -40 -16 -48 -24 -8 -8 -24 -14 -36 -15 -12 0 -16
-3 -9 -6 7 -3 31 2 53 11 29 12 45 13 59 6 11 -6 35 -11 54 -12 24 -1 38 -7
45 -22 9 -19 10 -18 5 7 -7 29 4 34 36 17 15 -8 17 -16 10 -44 -6 -29 -5 -34
9 -29 9 2 3 -7 -14 -21 -36 -31 -19 -35 19 -5 28 22 35 64 15 101 -22 42 -118
60 -198 36z"/>
<path d="M1358 523 c7 -3 16 -2 19 1 4 3 -2 6 -13 5 -11 0 -14 -3 -6 -6z"/>
<path d="M1396 522 c-3 -6 1 -13 10 -16 23 -9 28 -2 10 13 -8 7 -17 8 -20 3z"/>
<path d="M1447 493 c-14 -14 -6 -20 19 -15 19 3 22 7 12 13 -16 11 -23 11 -31
2z"/>
</g>
</svg>
